HIERARCHY
ROOT torso
{
OFFSET 0.00 0.00 0.00
CHANNELS 3 Xposition Yposition Zposition
JOINT left_hip
{
OFFSET 0.05 0.25 0.1
CHANNELS 3 Zrotation Xrotation Yrotation
JOINT left_knee
{
OFFSET 0.01 0.37 0.09
CHANNELS 3 Zrotation Xrotation Yrotation
JOINT left_foot
{
OFFSET 0.12 0.4 0.11
CHANNELS 3 Zrotation Xrotation Yrotation
End Site
{
OFFSET 0.00 0.00 0.00
}
}
}
}
JOINT neck
{
OFFSET 0.01 -0.23 -0.08
CHANNELS 3 Zrotation Xrotation Yrotation
JOINT head
{
OFFSET 0.03 -0.15 -0.2
CHANNELS 3 Zrotation Xrotation Yrotation
End Site
{
OFFSET 0.00 0.00 0.00
}
}
JOINT left_shoulder
{
OFFSET 0.13 -0.01 0.09
CHANNELS 3 Zrotation Xrotation Yrotation
JOINT left_elbow
{
OFFSET -0.01 0.2 0.02
CHANNELS 3 Zrotation Xrotation Yrotation
JOINT left_wrist
{
OFFSET 0.07 0.14 -0.12
CHANNELS 3 Zrotation Xrotation Yrotation
End Site
{
OFFSET 0.00 0.00 0.00
}
}
}
}
JOINT right_shoulder
{
OFFSET -0.13 0.01 -0.09
CHANNELS 3 Zrotation Xrotation Yrotation
JOINT right_elbow
{
OFFSET 0.08 0.25 -0.0
CHANNELS 3 Zrotation Xrotation Yrotation
JOINT right_wrist
{
OFFSET 0.18 0.09 -0.02
CHANNELS 3 Zrotation Xrotation Yrotation
End Site
{
OFFSET 0.00 0.00 0.00
}
}
}
}
}
JOINT right_hip
{
OFFSET -0.15 0.25 -0.01
CHANNELS 3 Zrotation Xrotation Yrotation
JOINT right_knee
{
OFFSET 0.02 0.39 0.14
CHANNELS 3 Zrotation Xrotation Yrotation
JOINT right_foot
{
OFFSET 0.02 0.44 0.11
CHANNELS 3 Zrotation Xrotation Yrotation
End Site
{
OFFSET 0.00 0.00 0.00
}
}
}
}
}
MOTION
Frames: 43
Frame Time: 0.033357348703170024
0.0 0.0 0.0 11.72 21.5 27.78 1.86 13.48 7.72 17.02 15.09 48.62 176.58 -161.89 169.65 168.32 -127.42 171.01 96.32 99.7 57.04 -2.56 6.63 -21.03 27.16 -41.9 150.24 -83.68 -80.3 -122.96 16.92 -0.31 91.01 61.93 -10.82 95.82 -30.63 -2.29 -93.86 2.56 19.87 7.05 2.49 13.94 9.92 
0.0 0.0 0.0 13.72 21.99 31.16 0.07 17.7 0.21 15.62 16.38 43.56 175.32 -160.16 167.22 165.86 -125.36 169.86 97.01 98.67 51.15 -6.56 8.09 -39.01 28.77 -39.09 145.95 -82.99 -81.33 -128.85 20.49 3.42 80.9 62.78 0.21 89.89 -28.93 -2.49 -94.5 2.37 21.72 5.94 2.53 15.99 8.77 
0.0 0.0 0.0 15.23 22.22 33.68 -1.76 21.22 -4.52 15.87 16.96 43.0 174.2 -160.02 164.39 162.6 -123.02 168.49 98.32 98.36 45.16 -3.27 9.35 -19.13 32.14 -37.58 140.78 -81.68 -81.64 -134.84 25.23 4.68 80.15 61.73 10.3 84.42 -26.9 -3.88 -97.61 1.89 22.48 4.57 2.89 15.75 10.15 
0.0 0.0 0.0 16.35 22.34 35.52 -2.19 22.4 -5.3 15.47 18.5 39.6 172.76 -158.79 161.87 160.14 -124.09 166.27 100.57 98.51 38.72 -3.91 8.58 -24.39 31.5 -34.8 138.59 -79.43 -81.49 -141.28 31.63 5.41 81.26 66.42 14.13 83.73 -25.38 -4.65 -99.73 1.6 24.54 3.5 2.99 18.38 8.94 
0.0 0.0 0.0 16.48 22.56 35.45 -2.09 20.98 -5.45 15.26 17.79 40.37 172.67 -158.41 161.99 159.28 -124.03 165.68 100.73 98.3 37.58 -4.12 8.34 -26.16 34.09 -36.06 137.1 -79.27 -81.7 -142.42 32.52 4.39 83.14 68.04 14.36 84.1 -25.08 -4.71 -99.99 1.4 24.3 3.1 2.84 17.77 8.81 
0.0 0.0 0.0 16.27 22.43 35.26 -1.75 20.38 -4.69 15.63 17.09 42.31 171.38 -158.23 159.21 158.5 -123.81 165.22 102.46 98.3 33.42 -3.5 11.22 -17.15 34.02 -32.25 133.07 -77.54 -81.7 -146.58 32.48 4.77 82.54 67.73 14.11 84.12 -24.25 -5.51 -102.09 1.07 24.25 2.36 2.57 17.36 8.15 
0.0 0.0 0.0 15.42 21.57 34.9 -1.37 20.42 -3.68 15.72 16.32 43.87 170.62 -158.6 157.14 158.9 -123.61 165.61 103.94 98.43 30.83 -2.87 11.17 -14.24 36.18 -36.27 135.09 -76.06 -81.57 -149.17 33.19 3.94 83.99 67.95 15.19 83.73 -23.95 -7.05 -105.56 0.78 24.3 1.72 2.39 17.08 7.72 
0.0 0.0 0.0 14.49 22.29 32.23 -1.53 21.25 -3.93 15.89 14.87 46.98 169.57 -157.42 156.13 157.89 -124.38 164.47 107.59 98.89 26.27 -0.96 16.65 -3.2 48.86 -35.63 122.05 -72.41 -81.11 -153.73 35.87 5.23 82.79 67.58 19.49 81.69 -22.88 -7.37 -107.04 0.32 24.59 0.7 2.25 16.91 7.37 
0.0 0.0 0.0 12.91 23.61 27.67 -1.74 22.21 -4.25 17.05 14.06 50.76 168.97 -156.06 156.3 156.18 -125.75 162.37 113.75 99.67 21.16 2.95 23.08 6.91 59.96 -31.82 109.74 -66.25 -80.33 -158.84 36.46 6.87 80.73 65.3 22.0 79.47 -21.2 -8.11 -110.17 -0.25 24.5 -0.55 1.88 17.21 6.06 
0.0 0.0 0.0 12.99 24.45 26.89 -2.7 22.63 -6.45 18.46 13.94 53.36 168.6 -154.82 156.79 152.12 -126.54 158.59 122.72 100.8 16.54 5.83 20.79 15.06 60.04 -29.42 108.01 -57.28 -79.2 -163.46 37.33 9.53 77.59 63.73 22.48 78.46 -19.21 -8.47 -113.15 -0.95 24.82 -2.05 1.94 17.23 6.23 
0.0 0.0 0.0 11.84 24.22 24.99 -3.4 21.77 -8.46 19.65 13.33 56.43 167.76 -155.38 154.67 147.83 -126.55 155.0 126.02 100.74 14.62 3.16 18.44 9.39 51.37 -26.67 111.87 -53.98 -79.26 -165.38 34.8 8.28 78.17 61.24 25.08 75.6 -18.96 -9.54 -116.08 -1.33 24.69 -2.88 2.12 16.92 6.95 
0.0 0.0 0.0 9.75 24.97 20.26 -4.43 21.43 -11.16 21.44 13.41 58.75 167.71 -154.97 154.99 143.81 -128.24 150.04 125.53 100.07 13.96 3.35 16.81 10.96 50.66 -29.71 115.07 -54.47 -79.93 -166.04 32.58 8.62 76.65 58.42 23.35 75.14 -18.87 -9.8 -116.8 -1.6 24.83 -3.46 2.88 17.46 9.09 
0.0 0.0 0.0 8.71 26.29 17.23 -4.22 21.1 -10.82 22.67 13.48 60.15 167.9 -153.79 156.46 134.65 -133.13 136.53 120.86 98.35 13.81 7.0 16.87 22.03 49.73 -26.12 112.56 -59.14 -81.65 -166.19 31.46 6.85 78.88 54.62 18.91 76.33 -19.09 -9.43 -115.64 -0.08 24.58 -0.18 2.72 17.74 8.44 
0.0 0.0 0.0 6.51 26.53 12.87 -4.36 20.5 -11.52 23.5 12.09 63.78 166.92 -153.64 154.88 132.5 -137.35 130.17 124.52 98.26 11.92 5.81 16.44 19.02 49.69 -21.86 108.8 -55.48 -81.74 -168.08 28.55 6.65 77.91 51.23 18.63 74.85 -18.88 -9.48 -116.03 0.31 24.39 0.68 2.35 17.98 7.22 
0.0 0.0 0.0 6.21 28.1 11.52 -4.31 17.85 -13.17 24.33 9.73 69.23 166.52 -150.95 156.66 124.28 -146.17 114.55 128.33 99.37 11.78 4.23 16.26 14.23 45.05 -15.66 105.63 -51.67 -80.63 -168.22 26.04 5.9 78.05 46.82 24.0 67.32 -19.19 -8.21 -112.51 0.49 22.5 1.19 2.66 15.96 9.22 
0.0 0.0 0.0 6.85 29.52 11.97 -4.45 20.92 -11.5 25.74 16.34 58.71 166.67 -149.02 158.46 122.32 -152.78 108.03 130.15 99.8 11.57 -3.44 14.89 -12.74 34.38 -11.34 106.34 -49.85 -80.2 -168.43 26.15 3.97 81.95 42.92 26.43 61.88 -19.0 -7.03 -109.71 0.39 23.69 0.89 2.64 17.45 8.35 
0.0 0.0 0.0 7.6 31.14 12.45 -3.78 22.32 -9.14 27.89 18.34 57.94 166.67 -147.13 159.87 120.61 -157.76 103.6 143.44 101.74 8.76 -11.26 16.1 -34.59 23.87 -9.49 110.69 -36.56 -78.26 -171.24 21.11 5.13 76.92 35.8 30.75 50.48 -17.04 -6.07 -109.14 -0.03 25.71 -0.07 3.09 19.13 8.86 
0.0 0.0 0.0 8.15 32.42 12.71 -4.56 24.31 -10.02 29.03 20.91 55.45 167.36 -146.84 161.05 119.17 -159.79 101.61 153.36 102.81 6.5 -18.09 16.41 -47.97 13.2 -5.48 112.23 -26.64 -77.19 -173.5 11.1 4.77 66.98 25.56 29.46 40.26 -14.87 -5.62 -110.32 -0.72 27.26 -1.39 4.54 19.57 12.59 
0.0 0.0 0.0 9.98 32.74 15.31 -3.89 24.85 -8.36 25.45 18.56 54.79 169.54 -146.79 164.25 117.77 -159.09 101.37 136.4 102.85 12.26 -13.28 17.31 -37.13 20.98 -3.77 99.76 -43.6 -77.15 -167.74 6.64 2.19 71.8 18.69 24.05 37.17 -16.59 -5.05 -106.53 -0.45 27.81 -0.86 4.03 18.71 11.74 
0.0 0.0 0.0 12.22 32.58 18.72 -5.04 25.65 -10.41 23.18 19.84 49.87 173.65 -147.75 170.0 116.2 -161.89 99.14 125.45 104.21 19.59 -21.17 17.22 -51.33 12.11 -3.02 103.82 -54.55 -75.79 -160.41 -5.31 3.01 -60.52 10.55 23.08 23.6 -17.39 -4.81 -105.05 -0.84 27.78 -1.59 4.53 16.9 14.62 
0.0 0.0 0.0 13.77 32.65 20.93 -5.67 25.56 -11.74 22.57 19.57 49.46 173.43 -147.73 169.67 114.15 -160.89 98.83 122.66 104.55 22.05 -22.09 18.12 -51.12 6.15 0.96 81.15 -57.34 -75.45 -157.95 -7.62 4.16 -61.48 4.02 20.55 10.63 -18.93 -4.34 -102.47 -1.33 27.98 -2.5 4.64 16.81 15.03 
0.0 0.0 0.0 13.96 32.94 20.99 -5.2 25.31 -10.89 20.95 18.73 48.47 172.89 -147.29 169.02 114.33 -162.3 98.21 118.06 104.74 26.27 -24.5 22.82 -47.27 12.36 7.24 59.9 -61.94 -75.26 -153.73 -10.99 3.06 -74.6 0.49 15.4 1.78 -21.85 -3.36 -98.33 -0.86 28.75 -1.57 3.41 17.6 10.63 
0.0 0.0 0.0 13.22 31.87 20.7 -5.5 24.48 -11.94 19.65 18.7 46.54 174.35 -152.64 169.18 114.41 -155.66 101.6 105.35 100.18 33.19 -28.35 21.41 -54.0 8.39 -4.8 119.65 -74.65 -79.82 -146.81 -23.7 0.55 -88.74 -10.68 9.97 -47.01 -23.64 -3.69 -98.38 -1.18 25.09 -2.51 1.65 13.41 6.88 
0.0 0.0 0.0 13.1 29.39 22.46 -4.9 24.27 -10.78 18.83 17.78 46.76 174.5 -155.34 168.16 112.99 -148.44 104.61 103.78 99.29 33.71 -33.61 32.15 -46.6 15.85 6.08 69.42 -76.22 -80.71 -146.29 -31.09 -1.58 -92.63 -20.48 9.14 -66.69 -23.35 -5.39 -102.34 -1.1 25.02 -2.35 0.78 14.25 3.07 
0.0 0.0 0.0 12.75 28.87 22.32 -3.09 24.24 -6.83 17.12 17.82 43.78 174.22 -155.08 167.71 111.92 -133.57 112.93 103.38 99.39 34.79 -38.3 53.81 -30.02 56.78 54.57 47.37 -76.62 -80.61 -145.21 -36.87 -3.33 -94.43 -31.82 6.29 -79.93 -24.05 -4.77 -100.6 -0.81 25.65 -1.69 0.39 17.08 1.28 
0.0 0.0 0.0 12.37 28.26 22.19 -2.57 24.13 -5.72 16.07 18.26 41.13 174.37 -155.34 167.89 110.87 -127.12 116.74 100.98 98.02 35.99 -34.46 57.68 -23.47 63.36 57.65 51.63 -79.02 -81.98 -144.01 -43.97 -3.72 -93.85 -35.49 5.48 -82.34 -24.67 -4.6 -99.93 -1.29 26.17 -2.63 -0.32 18.65 -0.96 
0.0 0.0 0.0 11.82 27.97 21.5 -2.47 23.49 -5.67 15.89 19.45 38.87 174.55 -155.62 168.11 110.73 -122.96 120.28 98.53 96.75 38.29 -30.97 58.45 -20.23 67.19 62.06 51.58 -81.47 -83.25 -141.71 -46.56 -2.4 -92.27 -44.93 2.34 -87.65 -25.64 -3.86 -98.01 -1.56 26.07 -3.18 -0.74 19.55 -2.08 
0.0 0.0 0.0 11.53 28.21 20.82 -2.8 23.46 -6.42 15.4 20.88 35.83 175.01 -155.75 169.02 110.39 -120.72 122.03 97.04 96.09 40.83 -30.99 60.08 -19.07 69.57 65.9 50.21 -82.96 -83.91 -139.17 -50.97 -1.06 -90.86 -52.29 -0.01 -90.01 -26.21 -2.63 -95.33 -1.64 25.82 -3.39 -0.68 19.46 -1.93 
0.0 0.0 0.0 11.0 28.21 19.91 -2.92 23.11 -6.82 14.77 22.11 32.99 174.92 -156.09 168.65 110.46 -120.57 122.28 96.04 95.49 42.22 -29.51 61.15 -17.32 70.26 69.4 46.34 -83.96 -84.51 -137.78 -52.48 -0.25 -90.19 -56.89 -1.23 -90.8 -26.72 -2.14 -94.25 -1.82 25.57 -3.8 -1.08 19.41 -3.07 
0.0 0.0 0.0 10.31 27.57 19.21 -3.1 22.31 -7.51 13.78 22.74 30.34 174.9 -157.75 167.69 110.24 -118.55 124.13 94.03 94.06 45.17 -30.82 61.62 -17.86 70.19 67.74 48.66 -85.97 -85.94 -134.83 -55.15 3.09 -87.85 -58.67 -11.22 -96.89 -27.49 -1.98 -93.8 -2.05 24.89 -4.41 -1.44 19.32 -4.09 
0.0 0.0 0.0 9.46 27.27 17.91 -3.15 22.02 -7.75 13.64 23.07 29.68 174.78 -158.97 166.62 110.57 -117.41 125.89 92.39 92.63 47.76 -28.95 61.4 -16.78 70.32 67.32 49.45 -87.61 -87.37 -132.24 -55.64 3.49 -87.61 -61.92 -19.21 -100.53 -28.49 -1.95 -93.59 -2.05 24.32 -4.54 -1.36 19.01 -3.95 
0.0 0.0 0.0 8.76 27.1 16.76 -3.27 21.6 -8.22 13.2 23.39 28.47 174.67 -159.24 166.17 110.66 -117.15 126.33 91.48 91.71 49.19 -23.85 62.62 -12.9 68.66 67.44 46.76 -88.52 -88.29 -130.81 -56.26 4.56 -86.95 -64.21 -18.91 -99.4 -29.46 -1.92 -93.39 -2.0 23.5 -4.58 -1.58 18.47 -4.73 
0.0 0.0 0.0 8.13 26.87 15.75 -3.44 21.39 -8.73 12.53 23.49 27.09 174.58 -159.8 165.54 111.17 -117.01 127.23 90.77 90.95 50.97 -21.9 63.97 -11.11 66.53 66.9 44.49 -89.23 -89.05 -129.03 -57.54 5.97 -86.2 -65.64 -20.37 -99.54 -30.31 -1.84 -93.14 -2.07 23.08 -4.84 -2.0 18.04 -6.12 
0.0 0.0 0.0 7.8 27.17 14.95 -3.94 21.58 -9.87 12.11 23.74 26.02 174.55 -159.19 165.9 111.29 -115.94 128.71 90.33 90.41 51.59 -24.69 65.75 -11.7 66.03 66.14 44.86 -89.67 -89.59 -128.41 -57.86 6.48 -85.92 -65.98 -18.16 -98.31 -30.89 -1.14 -91.91 -2.32 22.94 -5.46 -2.41 17.72 -7.52 
0.0 0.0 0.0 7.77 27.25 14.84 -4.06 21.55 -10.18 11.98 24.02 25.46 174.4 -158.83 165.8 110.09 -114.43 128.84 90.11 90.13 51.19 -26.82 66.41 -12.45 63.78 65.46 42.83 -89.89 -89.87 -128.81 -56.84 5.81 -86.2 -66.48 -15.51 -96.89 -31.05 -1.07 -91.78 -2.54 22.54 -6.09 -2.62 17.12 -8.46 
0.0 0.0 0.0 7.32 27.74 13.72 -4.78 21.94 -11.74 12.23 23.99 25.96 174.27 -158.51 165.69 109.9 -112.76 130.79 90.14 90.18 52.25 -31.07 68.08 -13.63 63.19 63.59 44.5 -89.86 -89.82 -127.75 -57.74 9.32 -84.08 -67.66 -2.34 -90.96 -31.63 -0.34 -90.55 -2.96 22.37 -7.16 -2.71 16.54 -9.06 
0.0 0.0 0.0 7.15 28.2 13.18 -5.24 22.15 -12.71 12.26 23.64 26.4 174.08 -158.25 165.44 108.38 -110.14 132.17 90.22 90.29 53.02 -33.45 68.63 -14.49 63.93 62.55 46.71 -89.78 -89.71 -126.98 -57.41 10.1 -83.5 -66.11 1.6 -89.29 -32.06 0.25 -89.6 -3.21 22.24 -7.81 -2.6 15.23 -9.48 
0.0 0.0 0.0 6.81 28.51 12.41 -5.6 22.76 -13.15 12.1 23.25 26.52 173.8 -157.89 165.03 108.82 -109.53 133.85 90.46 90.62 53.23 -34.17 68.78 -14.77 62.85 59.77 48.65 -89.54 -89.38 -126.77 -57.63 10.14 -83.53 -64.81 2.05 -89.04 -32.47 0.57 -89.11 -3.7 22.25 -8.98 -2.94 15.17 -10.71 
0.0 0.0 0.0 6.53 28.6 11.85 -5.64 23.2 -12.98 11.68 23.43 25.51 173.42 -156.59 165.08 109.61 -109.9 134.54 90.86 91.09 51.71 -34.24 70.11 -13.84 59.41 59.06 45.4 -89.14 -88.91 -128.29 -58.09 7.32 -85.43 -63.18 -8.2 -94.17 -32.72 0.72 -88.87 -3.96 22.26 -9.6 -3.33 15.21 -12.07 
0.0 0.0 0.0 6.43 28.66 11.66 -5.71 23.3 -13.07 10.9 23.02 24.38 173.12 -155.41 165.23 110.0 -111.02 133.43 90.89 91.06 49.96 -30.47 70.91 -11.51 57.07 60.25 41.42 -89.11 -88.94 -130.04 -58.39 3.0 -88.15 -62.06 -11.3 -96.05 -32.89 0.63 -89.03 -4.37 21.81 -10.8 -3.49 13.33 -14.45 
0.0 0.0 0.0 6.11 28.61 11.1 -6.13 23.28 -14.01 9.93 22.47 22.95 172.71 -155.23 164.5 110.69 -111.33 134.06 91.08 91.28 49.75 -30.84 71.15 -11.52 54.38 59.58 39.34 -88.92 -88.72 -130.25 -58.97 4.5 -87.29 -61.4 -8.79 -94.82 -33.2 0.58 -89.11 -4.66 20.76 -12.15 -4.03 10.81 -20.24 
0.0 0.0 0.0 6.17 29.46 10.83 -7.43 23.37 -16.79 9.44 22.4 21.98 172.52 -154.14 164.84 111.8 -112.39 134.16 92.59 93.11 50.27 -33.5 71.47 -12.51 48.84 57.01 36.59 -87.41 -86.89 -129.73 -60.1 8.43 -85.13 -60.15 11.03 -83.62 -33.28 1.96 -87.01 -5.27 20.68 -13.74 -4.19 10.09 -22.36 
0.0 0.0 0.0 6.17 30.08 10.56 -8.27 23.12 -18.81 8.93 22.06 21.18 172.36 -153.55 164.91 112.66 -113.95 133.23 93.43 94.3 51.45 -35.34 71.22 -13.56 43.84 52.67 36.22 -86.57 -85.7 -128.55 -61.2 18.39 -79.64 -60.82 29.4 -72.54 -33.45 3.37 -84.91 -5.81 20.64 -15.12 -4.92 10.42 -25.08 
